<?xml version="1.0" encoding="utf-8"?>
<!-- Generator: Adobe Illustrator 27.5.0, SVG Export Plug-In . SVG Version: 6.00 Build 0)  -->
<svg version="1.1" id="Layer_1" xmlns="http://www.w3.org/2000/svg" xmlns:xlink="http://www.w3.org/1999/xlink" x="0px" y="0px"
	 viewBox="0 0 138.243 118.452" style="enable-background:new 0 0 138.243 118.452;" xml:space="preserve">
<g>
	<g>
		<g>
			<g>
				<path style="fill:#4B1E0A;" d="M43.543,20.13c-1.574,0-3.123,0.103-4.646,0.292c0.325-1.571,0.373-3.295,0.329-4.82
					c-0.049-1.688,0.402-3.658,0.181-5.405c0.041-0.026,0.079-0.056,0.12-0.083c-0.008-0.037-0.021-0.07-0.03-0.105
					c0.012-0.018,0.025-0.035,0.033-0.054c0.076-0.074,0.104-0.193-0.015-0.243c-1.403-0.579-2.957-0.939-4.524-1.209
					c-0.563-0.156-1.126-0.313-1.696-0.445c-0.136-0.031-1.561-0.508-1.63-0.373c0.024-0.049-0.019-0.117-0.074-0.084
					c-0.091,0.055-0.126,0.084-0.18,0.144c-4.586,1.23-9.444,2.174-13.611,4.522c-0.046-0.027-0.109,0.007-0.112,0.059
					c-0.005,0.002-0.009,0.004-0.012,0.007c-0.032,0.018-0.046,0.067-0.033,0.097c-1.733,1.943-3.48,4.049-4.333,6.546
					c-0.077,0.224,0.151,0.301,0.32,0.226c1.262,1.283,2.588,2.529,3.882,3.762c1.467,1.398,3.125,2.545,4.6,3.898
					C12.392,33.64,6.025,44.897,6.025,57.648c0,20.721,16.798,37.518,37.518,37.518c20.721,0,37.517-16.797,37.517-37.518
					S64.264,20.13,43.543,20.13z M43.543,93.495c-19.591,0-35.472-15.883-35.472-35.473c0-19.591,15.881-35.473,35.472-35.473
					s35.472,15.882,35.472,35.473C79.015,77.612,63.134,93.495,43.543,93.495z"/>
				<path style="fill:#C6D6DB;" d="M43.543,22.549c-19.591,0-35.472,15.882-35.472,35.473c0,19.59,15.881,35.473,35.472,35.473
					s35.472-15.883,35.472-35.473C79.015,38.431,63.134,22.549,43.543,22.549z M43.543,90.115
					c-18.156,0-32.877-14.719-32.877-32.876c0-18.158,14.721-32.877,32.877-32.877c18.156,0,32.876,14.719,32.876,32.877
					C76.419,75.396,61.699,90.115,43.543,90.115z"/>
				<path style="fill:#4B1E0A;" d="M43.543,24.362c-18.156,0-32.877,14.719-32.877,32.877c0,18.157,14.721,32.876,32.877,32.876
					c18.156,0,32.876-14.719,32.876-32.876C76.419,39.081,61.699,24.362,43.543,24.362z M43.543,88.651
					c-17.167,0-31.084-13.918-31.084-31.084c0-17.168,13.917-31.084,31.084-31.084s31.083,13.916,31.083,31.084
					C74.626,74.733,60.71,88.651,43.543,88.651z"/>
			</g>
			<path style="fill:#8FCFFF;" d="M35.523,19.507c-0.429-0.619-0.86-1.237-1.308-1.843c-0.618-0.84-1.288-1.926-2.124-2.609
				c1.753-0.883,3.312-2.16,4.899-3.293c0.59-0.421,1.221-0.812,1.85-1.206c-0.01,0.036-0.021,0.071-0.031,0.106
				C37.356,13.433,36.33,16.461,35.523,19.507z"/>
			<path style="fill:#8FCFFF;" d="M38.401,12.227c-0.014,0.077-0.031,0.152-0.042,0.231c-0.148,1.089-0.395,2.171-0.623,3.245
				C37.39,17.33,37.33,19.069,37,20.705c-0.19,0.034-0.377,0.079-0.566,0.116c-0.199-0.286-0.398-0.573-0.597-0.86
				c0.3-1.093,0.578-2.192,0.906-3.276C37.203,15.167,37.822,13.704,38.401,12.227z"/>
			<path style="fill:#8FCFFF;" d="M35.333,20.249c-0.072,0.287-0.147,0.572-0.216,0.859c-0.624,0.142-1.244,0.291-1.854,0.467
				c-0.313-1.806-0.867-3.559-1.195-5.363c-0.052-0.283-0.097-0.576-0.14-0.871c0.008-0.01,0.017-0.021,0.018-0.035
				c0.004-0.028,0.007-0.059,0.01-0.088c0.659,0.864,1.181,1.917,1.806,2.803C34.285,18.761,34.77,19.538,35.333,20.249z"/>
			<path style="fill:#CFEEFF;" d="M37.983,10.61c-1.942,1.389-3.941,2.733-5.955,3.867c0.028-0.779-0.06-1.588-0.13-2.342
				c-0.073-0.777-0.076-1.558-0.1-2.336c0.298,0.01,0.593,0.021,0.876,0.045c2.03,0.159,4.14,0.213,6.187,0.254
				C38.62,10.256,38.3,10.471,37.983,10.61z"/>
			<path style="fill:#CFEEFF;" d="M37.668,9.602c-1.952-0.158-3.925-0.267-5.893-0.311c-0.02-0.384-0.057-0.768-0.111-1.15
				C33.673,8.593,35.668,9.11,37.668,9.602z"/>
			<path style="fill:#8FCFFF;" d="M31.615,17.124c0.156,1.332,0.434,2.652,0.86,3.923c-0.837-0.657-1.665-1.327-2.537-1.944
				c-0.993-0.705-1.888-1.771-3.068-2.159c1.527-0.431,3.041-0.903,4.482-1.542c0.041,0.008,0.083,0.016,0.125,0.023
				C31.513,16.003,31.551,16.577,31.615,17.124z"/>
			<path style="fill:#8FCFFF;" d="M26.747,17.025c1.188,0.773,2.17,1.934,3.307,2.795c0.767,0.583,1.558,1.373,2.393,1.996
				c-1.878,0.586-3.691,1.317-5.431,2.175c-0.002-0.828-0.089-1.672-0.12-2.438C26.837,20.051,26.983,18.514,26.747,17.025z"/>
			<path style="fill:#8FCFFF;" d="M25.173,24.946c-0.598,0.337-1.188,0.684-1.764,1.053c-0.045,0.017-0.397,0.084-0.349,0.066
				c-0.076,0.026-0.174,0.017-0.28-0.008c-0.068-1.019-0.241-2.046-0.324-3.063c0.738,0.375,1.475,0.754,2.211,1.132
				C24.82,24.409,24.984,24.693,25.173,24.946z"/>
			<path style="fill:#8FCFFF;" d="M22.413,22.372c-0.038-1.062-0.259-2.185-0.354-3.271c0.679,1.267,1.361,2.533,2.008,3.817
				c0.063,0.126,0.142,0.291,0.229,0.474c-0.62-0.33-1.246-0.645-1.877-0.945C22.417,22.42,22.414,22.397,22.413,22.372z"/>
			<path style="fill:#8FCFFF;" d="M26.142,24.429c-0.14-0.083-0.28-0.161-0.42-0.243c-0.572-0.791-1.035-1.814-1.405-2.456
				c-0.662-1.149-1.374-2.264-2.099-3.37c0.008-0.007,0.016-0.007,0.022-0.016c0.028-0.037,0.05-0.08,0.077-0.118
				c1.418-0.442,2.877-0.814,4.329-1.22c0.027,1.318-0.017,2.634-0.021,3.951c-0.003,1.051,0.096,2.122,0.09,3.184
				C26.524,24.238,26.332,24.333,26.142,24.429z"/>
			<path style="fill:#CFEEFF;" d="M22.492,17.96c0.622-0.948,1.069-2.079,1.641-3.052c0.053-0.092,0.591-0.885,1.226-1.846
				c0.373,0.162,0.744,0.316,1.103,0.462c1.298,0.53,2.67,1.266,4.058,1.677C27.941,16.289,25.021,16.69,22.492,17.96z"/>
			<path style="fill:#CFEEFF;" d="M31.302,8.055c0.043,0.01,0.085,0.021,0.129,0.031c-0.061,0.381-0.11,0.783-0.151,1.197
				c-1.229-0.02-2.456-0.02-3.673,0.029c-0.007-0.025-0.013-0.051-0.02-0.076C28.853,8.893,30.112,8.533,31.302,8.055z"/>
			<path style="fill:#CFEEFF;" d="M27.55,9.503c1.15,0.26,2.449,0.258,3.685,0.281c-0.106,1.447-0.063,2.997,0.229,4.37
				c-0.488-0.735-1.117-1.426-1.657-2.063c-0.461-0.544-0.974-1.041-1.424-1.594c-0.271-0.331-0.537-0.676-0.839-0.978
				C27.546,9.514,27.547,9.51,27.55,9.503z"/>
			<path style="fill:#CFEEFF;" d="M28.376,10.997c0.409,0.594,0.894,1.15,1.334,1.721c0.547,0.705,0.994,1.483,1.593,2.136
				c-0.022,0.012-0.048,0.021-0.071,0.032c-1.813-0.829-3.651-1.621-5.496-2.394c0.723-1.102,1.472-2.278,1.744-2.826
				C27.808,10.088,28.091,10.583,28.376,10.997z"/>
			<path style="fill:#CFEEFF;" d="M22.289,10.894c0.572-0.21,1.147-0.423,1.708-0.614c0.998-0.341,2.034-0.621,3.073-0.901
				c0.07,0.022,0.143,0.036,0.215,0.056c0.004,0.004,0.007,0.008,0.011,0.013c-0.717,0.903-1.396,1.858-2.031,2.852
				c-1.028-0.428-2.057-0.859-3.088-1.266C22.213,10.985,22.253,10.942,22.289,10.894z"/>
			<path style="fill:#CFEEFF;" d="M22.037,11.208c0.84,0.664,1.859,1.192,2.878,1.652c-1.043,1.688-1.971,3.455-2.776,5.207
				c-0.007-0.059-0.035-0.109-0.12-0.119c0-0.007,0-0.014,0-0.021c0-0.002-0.003,0-0.003-0.002c-0.197-2.119-0.271-4.186-0.313-6.3
				C21.819,11.491,21.927,11.347,22.037,11.208z"/>
			<path style="fill:#8FCFFF;" d="M21.815,18.643c-0.086,1.178,0.174,2.454,0.228,3.623c-2.585-1.208-5.255-2.207-7.97-3.166
				c-0.003-0.002-0.006-0.005-0.009-0.008c0.692-0.029,1.384-0.072,2.077-0.127c1.778-0.14,3.794-0.192,5.543-0.565
				C21.728,18.481,21.771,18.562,21.815,18.643z"/>
			<path style="fill:#CFEEFF;" d="M20.921,17.936c-1.021,0.024-2.008,0.169-3.061,0.334c-1.195,0.189-2.394,0.328-3.593,0.45
				c1.294-1.251,2.581-2.515,3.891-3.751c0.24-0.227,0.487-0.451,0.735-0.672c0.207,0.282,0.414,0.563,0.612,0.837
				c0.661,0.917,1.31,2.002,2.093,2.826C21.371,17.972,21.144,17.973,20.921,17.936z"/>
			<path style="fill:#CFEEFF;" d="M21.56,17.053c-0.634-1.101-1.449-2.115-2.285-3.094c0.781-0.689,1.568-1.381,2.266-2.15
				C21.442,13.567,21.368,15.305,21.56,17.053z"/>
			<path style="fill:#CFEEFF;" d="M21.576,11.151c-0.003,0.039-0.005,0.076-0.007,0.114c-0.824,0.829-1.664,1.637-2.511,2.44
				c-0.385-0.445-0.771-0.886-1.146-1.32C19.127,12.042,20.354,11.6,21.576,11.151z"/>
			<path style="fill:#CFEEFF;" d="M17.684,12.448c0.004,0,0.006,0.002,0.009,0.001c0.013-0.003,0.025-0.007,0.039-0.011
				c0.258,0.559,0.607,1.086,0.976,1.601c-0.534,0.508-1.067,1.018-1.595,1.536c-1.003,0.988-2.239,2.004-3.066,3.169
				c-0.05,0.006-0.1,0.012-0.148,0.017C14.836,16.508,16.246,14.409,17.684,12.448z"/>
			<path style="fill:#8FCFFF;" d="M18.954,23.083c-1.435-0.864-2.925-2.375-4.318-3.533c1.345,0.629,2.782,1.079,4.139,1.678
				c1.12,0.493,2.213,1.029,3.301,1.577c0.04,1.021,0.119,2.051,0.264,3.068C21.188,25.237,19.358,23.327,18.954,23.083z"/>
			<g>
				<g>
					<path style="fill:#EAF5F9;" d="M57.627,26.499c0,0-0.785-0.304-2.262-0.875c-0.371-0.132-0.773-0.324-1.24-0.455
						c-0.467-0.128-0.977-0.268-1.527-0.419c-0.553-0.144-1.139-0.332-1.78-0.458c-0.647-0.104-1.335-0.215-2.061-0.332
						c-2.9-0.407-6.519-0.563-10.532,0.199c-4.006,0.721-8.4,2.29-12.598,4.972c-4.18,2.697-8.084,6.567-11.072,11.413
						c-0.394,0.593-0.676,1.257-1.022,1.889c-0.308,0.641-0.722,1.285-0.949,1.934c-0.538,1.382-1.202,2.766-1.55,4.196
						c-0.936,2.82-1.326,5.916-1.452,9.025c-0.095,3.13,0.345,6.314,1.147,9.439c0.875,3.111,2.203,6.129,3.922,8.946
						c1.78,2.783,3.998,5.291,6.483,7.51c2.555,2.154,5.441,3.876,8.467,5.277c3.123,1.261,6.308,2.168,9.601,2.56
						c3.287,0.336,6.598,0.284,9.815-0.271c3.197-0.616,6.303-1.575,9.173-2.973c2.827-1.463,5.496-3.175,7.771-5.278
						c2.238-2.12,4.311-4.381,5.854-6.932c0.87-1.213,1.467-2.567,2.149-3.851l0.23-0.451l0.203-0.517l0.405-1.029
						c0.251-0.684,0.577-1.362,0.761-2.038c1.663-5.352,2.01-10.88,1.271-15.779c-0.758-4.919-2.494-9.249-4.605-12.725
						c-2.092-3.506-4.6-6.12-6.836-8.009c-0.57-0.464-1.11-0.903-1.618-1.316c-0.523-0.395-1.052-0.708-1.525-1.029
						c-0.477-0.315-0.918-0.606-1.323-0.873c-0.406-0.264-0.813-0.439-1.157-0.63C58.371,26.888,57.627,26.499,57.627,26.499z
						 M57.684,26.36c0,0,0.758,0.38,2.176,1.091c0.349,0.187,0.762,0.357,1.174,0.616c0.412,0.262,0.861,0.547,1.347,0.855
						c0.479,0.316,1.02,0.624,1.552,1.012c0.52,0.408,1.07,0.842,1.654,1.3c2.256,1.897,4.953,4.373,7.215,7.876
						c2.279,3.456,4.331,7.799,5.265,12.882c0.903,5.08,0.745,10.79-1.069,16.52c-0.198,0.724-0.509,1.37-0.76,2.065l-0.4,1.031
						l-0.201,0.518c-0.106,0.243-0.178,0.359-0.268,0.545c-0.706,1.347-1.329,2.762-2.231,4.038c-1.606,2.674-3.757,5.07-6.14,7.246
						c-2.406,2.172-5.213,3.933-8.18,5.421c-3.01,1.419-6.251,2.399-9.586,2.976c-3.351,0.51-6.785,0.497-10.174,0.081
						c-3.385-0.499-6.699-1.561-9.793-2.924c-3.063-1.513-5.958-3.351-8.498-5.604c-2.506-2.28-4.73-4.847-6.508-7.686
						c-1.722-2.864-3.149-5.882-4.066-9.041c-0.828-3.169-1.418-6.386-1.418-9.595c0.025-3.198,0.32-6.353,1.207-9.354
						c0.34-1.546,0.94-2.912,1.449-4.313c0.266-0.759,0.66-1.371,0.981-2.057c0.353-0.659,0.641-1.35,1.042-1.97
						c0.822-1.225,1.511-2.522,2.458-3.609c0.445-0.563,0.889-1.122,1.327-1.676c0.475-0.523,0.987-1.005,1.472-1.503
						c1.944-1.995,4.143-3.566,6.297-4.967c4.41-2.683,9.022-4.03,13.116-4.618c4.119-0.628,7.762-0.264,10.675,0.183
						c0.728,0.135,1.418,0.262,2.066,0.382c0.644,0.144,1.231,0.346,1.788,0.491c0.554,0.156,1.066,0.301,1.536,0.433
						c0.469,0.135,0.867,0.329,1.238,0.464C56.898,26.05,57.684,26.36,57.684,26.36z"/>
				</g>
			</g>
		</g>
		<g>
			<path style="fill:#4B1E0A;" d="M91.724,29.871c-22.365,0-40.496,18.13-40.496,40.495s18.131,40.495,40.496,40.495
				c22.364,0,40.494-18.13,40.494-40.495S114.088,29.871,91.724,29.871z M91.724,109.056c-21.146,0-38.287-17.142-38.287-38.286
				c0-21.146,17.142-38.288,38.287-38.288S130.01,49.624,130.01,70.77C130.01,91.914,112.869,109.056,91.724,109.056z"/>
			<path style="fill:#C6D6DB;" d="M91.724,32.482c-21.146,0-38.287,17.142-38.287,38.288c0,21.145,17.142,38.286,38.287,38.286
				S130.01,91.914,130.01,70.77C130.01,49.624,112.869,32.482,91.724,32.482z M91.724,105.409
				c-19.598,0-35.485-15.887-35.485-35.484c0-19.599,15.888-35.486,35.485-35.486c19.598,0,35.485,15.888,35.485,35.486
				C127.209,89.522,111.321,105.409,91.724,105.409z"/>
			<path style="fill:#4B1E0A;" d="M91.724,34.438c-19.598,0-35.485,15.888-35.485,35.486c0,19.598,15.888,35.484,35.485,35.484
				c19.598,0,35.485-15.887,35.485-35.484C127.209,50.326,111.321,34.438,91.724,34.438z M91.724,103.829
				c-18.53,0-33.551-15.021-33.551-33.551s15.02-33.551,33.551-33.551c18.529,0,33.549,15.021,33.549,33.551
				S110.253,103.829,91.724,103.829z"/>
			<g>
				<path style="fill:#EAF5F9;" d="M91.776,33.882c0,0-0.894,0.048-2.573,0.138c-0.418,0.034-0.893,0.023-1.402,0.1
					c-0.508,0.08-1.063,0.167-1.664,0.26c-0.599,0.102-1.248,0.175-1.927,0.332c-0.673,0.181-1.388,0.373-2.144,0.576
					c-2.99,0.871-6.57,2.292-10.135,4.78c-3.572,2.444-7.158,5.879-10.064,10.316c-2.882,4.441-4.985,9.904-5.765,15.914
					c-0.123,0.748-0.105,1.516-0.166,2.28c-0.018,0.757-0.139,1.561-0.076,2.293c0.082,1.575,0.044,3.206,0.333,4.748
					c0.329,3.147,1.304,6.319,2.542,9.39c0.35,0.755,0.701,1.514,1.054,2.275c0.36,0.758,0.833,1.459,1.247,2.198l0.645,1.098
					c0.238,0.352,0.499,0.688,0.75,1.033c0.517,0.678,0.994,1.393,1.547,2.048c2.208,2.636,4.816,4.98,7.712,6.963
					c2.942,1.923,6.187,3.388,9.567,4.457c3.406,0.978,6.99,1.389,10.496,1.431c3.62-0.138,7.079-0.645,10.456-1.701
					c3.339-1.108,6.53-2.604,9.411-4.544c2.836-1.994,5.432-4.281,7.609-6.892c0.547-0.647,1.018-1.354,1.529-2.023l0.746-1.018
					l0.646-1.079c0.416-0.725,0.891-1.414,1.255-2.16c0.356-0.75,0.711-1.496,1.063-2.24c1.248-3.035,2.271-6.137,2.656-9.288
					c0.314-1.558,0.301-3.133,0.403-4.678l0.026-0.541l-0.028-0.59l-0.057-1.174c-0.056-0.772-0.036-1.572-0.153-2.309
					c-0.723-5.927-2.807-11.441-5.669-15.873c-2.889-4.441-6.472-7.878-10.04-10.325c-3.563-2.484-7.139-3.919-10.132-4.774
					c-0.756-0.201-1.472-0.391-2.144-0.569c-0.68-0.154-1.33-0.226-1.928-0.332c-0.601-0.096-1.156-0.186-1.665-0.267
					c-0.509-0.079-0.979-0.071-1.397-0.106C92.668,33.934,91.776,33.882,91.776,33.882z M91.772,33.732c0,0,0.899,0.039,2.584,0.111
					c0.421,0.029,0.895,0.014,1.407,0.085c0.514,0.074,1.073,0.155,1.679,0.243c0.603,0.098,1.261,0.16,1.946,0.305
					c0.681,0.17,1.404,0.35,2.169,0.54c3.016,0.854,6.708,2.085,10.423,4.498c3.715,2.358,7.59,5.678,10.707,10.197
					c3.085,4.527,5.416,10.13,6.158,16.465c0.123,0.787,0.104,1.549,0.163,2.333l0.062,1.174l0.031,0.59
					c0.004,0.277-0.016,0.423-0.021,0.642c-0.098,1.611-0.084,3.254-0.401,4.882c-0.39,3.289-1.43,6.546-2.788,9.692
					c-0.376,0.772-0.754,1.547-1.135,2.325c-0.389,0.772-0.889,1.488-1.332,2.238l-0.686,1.115l-0.787,1.052
					c-0.539,0.692-1.037,1.42-1.614,2.087c-2.296,2.687-5.007,5.049-7.984,7.063c-3.022,1.957-6.353,3.442-9.817,4.52
					c-3.484,0.994-7.186,1.415-10.74,1.446c-3.668-0.127-7.245-0.643-10.7-1.716c-3.423-1.116-6.7-2.632-9.661-4.606
					c-2.918-2.024-5.617-4.329-7.882-6.991c-2.186-2.709-4.157-5.572-5.554-8.683c-1.365-3.111-2.454-6.297-2.899-9.59
					c-0.343-1.644-0.357-3.231-0.473-4.813c-0.073-0.848,0.042-1.614,0.054-2.418c0.055-0.792,0.032-1.586,0.15-2.362
					c0.115-0.776,0.229-1.547,0.342-2.312c0.064-0.381,0.098-0.768,0.186-1.141l0.28-1.113c0.187-0.739,0.372-1.473,0.557-2.202
					c0.231-0.713,0.516-1.404,0.77-2.097c1.011-2.78,2.453-5.261,3.928-7.558c3.1-4.524,6.974-7.845,10.684-10.206
					c3.715-2.41,7.401-3.652,10.42-4.491c0.765-0.188,1.488-0.365,2.17-0.533c0.686-0.142,1.344-0.203,1.947-0.305
					c0.604-0.09,1.164-0.174,1.678-0.25c0.513-0.073,0.984-0.06,1.403-0.091C90.875,33.775,91.772,33.732,91.772,33.732z"/>
			</g>
		</g>
	</g>
	<g>
		<path style="fill:#FFFFFF;" d="M17.732,12.438c0,0-0.232,0.401-0.58,1.002c-0.358,0.593-0.837,1.383-1.315,2.173
			c-0.5,0.777-0.977,1.566-1.324,2.165c-0.359,0.592-0.614,0.982-0.614,0.982s0.189-0.422,0.491-1.048
			c0.158-0.309,0.327-0.68,0.538-1.061c0.223-0.373,0.46-0.771,0.697-1.168c0.483-0.79,1.005-1.556,1.411-2.12
			C17.44,12.799,17.732,12.438,17.732,12.438z"/>
	</g>
	<g>
		<g>
			<path style="fill:#FFFFFF;" d="M14.268,18.72c0.81-0.679,1.549-1.418,2.309-2.143l2.234-2.221l0.092-0.092l0.073,0.102
				c0.567,0.782,1.117,1.576,1.649,2.383c-0.625-0.738-1.232-1.489-1.823-2.253l0.165,0.01c-0.721,0.77-1.461,1.519-2.238,2.231
				c-0.385,0.36-0.782,0.705-1.191,1.04C15.136,18.125,14.699,18.418,14.268,18.72z"/>
		</g>
	</g>
	<g>
		<path style="fill:#FFFFFF;" d="M19.274,13.959c0,0,0.137-0.143,0.343-0.357c0.202-0.215,0.504-0.46,0.775-0.738
			c0.297-0.253,0.582-0.512,0.779-0.723c0.211-0.201,0.368-0.332,0.368-0.332s-0.094,0.169-0.259,0.42
			c-0.09,0.118-0.176,0.279-0.305,0.412c-0.133,0.13-0.273,0.269-0.415,0.407c-0.29,0.271-0.612,0.501-0.858,0.664
			C19.454,13.873,19.274,13.959,19.274,13.959z"/>
	</g>
	<g>
		<path style="fill:#FFFFFF;" d="M17.913,12.384c0,0,0.229-0.082,0.573-0.205c0.344-0.119,0.805-0.253,1.257-0.42
			c0.229-0.073,0.465-0.129,0.673-0.211c0.207-0.087,0.408-0.151,0.577-0.215c0.344-0.115,0.583-0.182,0.583-0.182
			s-0.203,0.13-0.523,0.309c-0.164,0.083-0.35,0.192-0.559,0.29c-0.209,0.093-0.443,0.162-0.674,0.246
			c-0.463,0.153-0.94,0.267-1.302,0.319C18.158,12.377,17.913,12.384,17.913,12.384z"/>
	</g>
	<g>
		<path style="fill:#FFFFFF;" d="M22.289,10.894c0,0,0.291-0.122,0.734-0.284c0.442-0.163,1.045-0.34,1.631-0.557
			c0.595-0.19,1.191-0.377,1.648-0.493c0.457-0.117,0.768-0.183,0.768-0.183s-0.283,0.133-0.719,0.314
			c-0.436,0.181-1.029,0.392-1.623,0.6c-0.598,0.202-1.205,0.354-1.667,0.453C22.601,10.842,22.289,10.894,22.289,10.894z"/>
	</g>
	<g>
		<g>
			<path style="fill:#FFFFFF;" d="M25.77,12.438l0.46-0.679c0.169-0.217,0.287-0.461,0.417-0.696
				c0.262-0.465,0.51-0.953,0.721-1.445l0.103-0.241l0.119,0.237c0.14,0.276,0.294,0.549,0.449,0.822
				c0.141,0.281,0.345,0.523,0.512,0.789c0.164,0.269,0.342,0.528,0.559,0.755l0.601,0.737l-0.696-0.652
				c-0.239-0.216-0.439-0.464-0.627-0.723c-0.187-0.259-0.394-0.506-0.547-0.787c-0.162-0.276-0.339-0.543-0.471-0.84l0.223-0.004
				c-0.24,0.499-0.475,0.993-0.793,1.451c-0.154,0.23-0.289,0.472-0.481,0.667L25.77,12.438z"/>
		</g>
	</g>
	<g>
		<path style="fill:#FFFFFF;" d="M21.702,11.625l0.284-0.458l0.041-0.066l0.061,0.066c0.185,0.198,0.435,0.335,0.637,0.516
			c0.103,0.088,0.234,0.142,0.35,0.215c0.121,0.066,0.235,0.142,0.351,0.215c0.117,0.071,0.226,0.16,0.358,0.201
			c0.128,0.049,0.253,0.109,0.378,0.167c0.254,0.11,0.501,0.244,0.753,0.378c-0.271-0.064-0.548-0.129-0.817-0.217
			c-0.137-0.041-0.273-0.08-0.407-0.13c-0.14-0.037-0.255-0.123-0.381-0.191c-0.124-0.071-0.249-0.141-0.368-0.22
			c-0.116-0.082-0.246-0.143-0.352-0.241c-0.215-0.192-0.432-0.375-0.603-0.613l0.101,0L21.702,11.625z"/>
	</g>
	<g>
		<path style="fill:#FFFFFF;" d="M23.369,16.369c0.619-1.052,1.286-2.072,1.968-3.081l0.052-0.077l0.088,0.032
			c1.465,0.533,2.923,1.083,4.347,1.727c-1.501-0.433-2.968-0.96-4.429-1.503l0.139-0.044
			C24.838,14.422,24.127,15.412,23.369,16.369z"/>
	</g>
	<g>
		<g>
			<path style="fill:#FFFFFF;" d="M31.092,9.799L30.25,9.918c-0.279,0.057-0.568,0.016-0.855,0.013
				c-0.581,0-1.139-0.107-1.705-0.211l0.119-0.195c0.879,1.041,1.748,2.089,2.542,3.202c-0.962-0.97-1.849-2.005-2.726-3.046
				l-0.232-0.274l0.353,0.079c0.542,0.122,1.105,0.213,1.654,0.267c0.278,0.027,0.555,0.08,0.841,0.057L31.092,9.799z"/>
		</g>
	</g>
	<g>
		<path style="fill:#FFFFFF;" d="M27.892,9.154c0,0,0.223-0.055,0.544-0.163c0.324-0.088,0.752-0.206,1.172-0.358
			c0.211-0.068,0.438-0.099,0.621-0.196c0.19-0.085,0.376-0.145,0.532-0.207c0.317-0.111,0.541-0.175,0.541-0.175
			s-0.185,0.127-0.479,0.302c-0.149,0.081-0.32,0.188-0.514,0.282c-0.186,0.11-0.413,0.153-0.627,0.233
			c-0.219,0.061-0.438,0.122-0.644,0.178c-0.211,0.039-0.41,0.056-0.579,0.08C28.119,9.171,27.892,9.154,27.892,9.154z"/>
	</g>
	<g>
		<path style="fill:#FFFFFF;" d="M31.663,8.141c0,0,0.362,0.068,0.899,0.19c0.535,0.128,1.242,0.321,1.958,0.461
			c0.709,0.173,1.416,0.35,1.943,0.507c0.527,0.157,0.878,0.276,0.878,0.276s-0.362-0.046-0.905-0.138
			c-0.543-0.091-1.262-0.246-1.98-0.403C34.1,8.942,33.74,8.865,33.41,8.767c-0.324-0.11-0.629-0.213-0.889-0.301
			C32.004,8.279,31.663,8.141,31.663,8.141z"/>
	</g>
	<g>
		<path style="fill:#FFFFFF;" d="M31.799,9.799c0,0,0.438,0.04,1.094,0.067c0.653,0.049,1.521,0.104,2.395,0.126
			c0.435,0.02,0.87,0.076,1.278,0.054c0.409,0.003,0.79,0.006,1.117,0.008c0.655,0.016,1.096,0.041,1.096,0.041
			s-0.435,0.048-1.091,0.1c-0.328,0.019-0.712,0.043-1.123,0.068c-0.412,0.032-0.85-0.012-1.289-0.021
			c-0.438-0.028-0.875-0.057-1.286-0.083c-0.409-0.045-0.788-0.11-1.114-0.154C32.224,9.911,31.799,9.799,31.799,9.799z"/>
	</g>
	<g>
		<path style="fill:#FFFFFF;" d="M14.073,19.1c0,0,0.476,0.003,1.185-0.05c0.353-0.022,0.766-0.022,1.205-0.067
			c0.441-0.041,0.91-0.083,1.381-0.127c0.472-0.021,0.94-0.068,1.376-0.15c0.438-0.059,0.849-0.115,1.199-0.162
			c0.704-0.084,1.18-0.126,1.18-0.126s-0.459,0.114-1.155,0.265c-0.35,0.07-0.757,0.151-1.193,0.239
			c-0.438,0.093-0.908,0.152-1.383,0.184c-0.475,0.032-0.949,0.064-1.392,0.095c-0.445,0.037-0.863-0.01-1.22-0.009
			C14.542,19.175,14.073,19.1,14.073,19.1z"/>
	</g>
	<g>
		<path style="fill:#FFFFFF;" d="M22.317,18.226c0,0,0.272-0.08,0.679-0.199c0.407-0.116,0.952-0.244,1.488-0.41
			c0.27-0.072,0.546-0.127,0.795-0.207c0.246-0.089,0.483-0.153,0.683-0.218c0.405-0.118,0.684-0.185,0.684-0.185
			s-0.248,0.133-0.633,0.315c-0.195,0.085-0.42,0.195-0.668,0.294c-0.25,0.091-0.525,0.159-0.797,0.242
			c-0.546,0.152-1.104,0.258-1.526,0.308C22.602,18.223,22.317,18.226,22.317,18.226z"/>
	</g>
	<g>
		<path style="fill:#FFFFFF;" d="M26.953,16.919c0,0,0.294-0.071,0.721-0.211c0.432-0.12,1.003-0.275,1.563-0.479
			c0.28-0.094,0.578-0.146,0.828-0.268c0.253-0.113,0.498-0.201,0.704-0.286c0.419-0.158,0.709-0.252,0.709-0.252
			s-0.253,0.158-0.648,0.379c-0.2,0.104-0.43,0.237-0.685,0.361c-0.252,0.133-0.549,0.198-0.832,0.303
			c-0.29,0.083-0.578,0.174-0.851,0.246c-0.277,0.058-0.54,0.093-0.762,0.133c-0.222,0.042-0.409,0.051-0.541,0.059
			C27.028,16.914,26.953,16.919,26.953,16.919z"/>
	</g>
	<g>
		<path style="fill:#FFFFFF;" d="M32.092,15.055c0,0,0.115-0.055,0.316-0.151c0.209-0.083,0.471-0.274,0.807-0.451
			c0.165-0.092,0.345-0.191,0.534-0.297c0.194-0.095,0.372-0.248,0.575-0.372c0.396-0.263,0.818-0.542,1.24-0.822
			c0.211-0.14,0.438-0.259,0.627-0.423c0.195-0.154,0.389-0.306,0.576-0.453c0.379-0.288,0.733-0.556,1.037-0.786
			c0.621-0.447,1.036-0.744,1.036-0.744s-0.372,0.347-0.946,0.853c-0.292,0.248-0.632,0.539-0.996,0.85
			c-0.185,0.152-0.376,0.31-0.57,0.469c-0.188,0.17-0.411,0.296-0.622,0.44c-0.433,0.274-0.865,0.546-1.271,0.802
			c-0.205,0.124-0.393,0.26-0.6,0.345c-0.199,0.094-0.388,0.183-0.563,0.265C32.583,14.918,32.092,15.055,32.092,15.055z"/>
	</g>
	<path style="fill:#CFEEFF;" d="M35.232,9.986c-0.676,0.903-1.702,1.93-3.264,2.947c0.043,0.514,0.078,1.032,0.06,1.544
		c2.014-1.135,4.013-2.479,5.955-3.867c0.316-0.139,0.637-0.354,0.878-0.512C37.662,10.074,36.446,10.038,35.232,9.986z"/>
	<path style="fill:#CFEEFF;" d="M23.377,16.353c-0.275,0.554-0.556,1.105-0.885,1.607c2.529-1.271,5.449-1.671,8.026-2.759
		c-0.555-0.164-1.104-0.386-1.65-0.62c-0.808,0.354-1.696,0.694-2.683,1.018C25.182,15.928,24.258,16.163,23.377,16.353z"/>
	<path style="fill:#CFEEFF;" d="M31.464,14.155c-0.057-0.268-0.097-0.546-0.136-0.825c-0.111,0.066-0.224,0.132-0.34,0.198
		C31.15,13.736,31.32,13.939,31.464,14.155z"/>
	<path style="fill:#CFEEFF;" d="M31.232,14.885c0.023-0.012,0.049-0.02,0.071-0.032c-0.3-0.327-0.563-0.686-0.817-1.051
		c-0.258,0.137-0.525,0.273-0.806,0.407C30.195,14.438,30.72,14.651,31.232,14.885z"/>
	<path style="fill:#CFEEFF;" d="M22.016,17.924c0,0.002,0.003,0,0.003,0.002c0,0.008,0,0.015,0,0.021
		c0.085,0.01,0.113,0.061,0.12,0.119c0.248-0.538,0.528-1.077,0.799-1.615c-0.35,0.068-0.681,0.119-1.011,0.169
		C21.958,17.055,21.975,17.486,22.016,17.924z"/>
	<path style="fill:#CFEEFF;" d="M16.477,16.59c-0.735,0.711-1.475,1.42-2.209,2.13c1.199-0.122,2.398-0.261,3.593-0.45
		c1.053-0.165,2.039-0.31,3.061-0.334c0.223,0.037,0.45,0.036,0.678,0.024c-0.34-0.357-0.65-0.767-0.951-1.188
		C18.988,16.913,17.601,16.817,16.477,16.59z"/>
	<path style="fill:#CFEEFF;" d="M21.56,17.053c-0.014-0.125-0.017-0.249-0.027-0.373c-0.062,0.008-0.128,0.021-0.189,0.028
		C21.415,16.824,21.492,16.936,21.56,17.053z"/>
	<path style="fill:#CFEEFF;" d="M13.898,18.76c0.049-0.005,0.099-0.011,0.148-0.017c0.57-0.803,1.335-1.532,2.083-2.233
		c-0.344-0.081-0.66-0.172-0.953-0.27C14.701,17.061,14.258,17.896,13.898,18.76z"/>
	<path style="fill:#CFEEFF;" d="M35.751,9.125c-0.056,0.12-0.111,0.23-0.17,0.336c0.697,0.043,1.395,0.085,2.087,0.141
		C37.028,9.445,36.39,9.285,35.751,9.125z"/>
	<path style="opacity:0.5;fill:#8FCFFF;" d="M38.841,10.556c-0.629,0.395-1.26,0.785-1.85,1.206
		c-1.588,1.133-3.146,2.41-4.899,3.293c0.801,0.654,1.447,1.673,2.043,2.496c0.626-0.023,1.275-0.021,1.945,0.006
		c0.715-2.38,1.588-4.717,2.729-6.895C38.82,10.627,38.831,10.592,38.841,10.556z"/>
	<path style="opacity:0.5;fill:#8FCFFF;" d="M37.736,15.704c0.229-1.074,0.475-2.156,0.623-3.245
		c0.011-0.079,0.028-0.154,0.042-0.231c-0.579,1.477-1.198,2.939-1.658,4.457c-0.089,0.294-0.169,0.591-0.252,0.887
		c0.308,0.018,0.624,0.045,0.941,0.073C37.514,16.989,37.602,16.337,37.736,15.704z"/>
	<path style="opacity:0.5;fill:#8FCFFF;" d="M31.947,15.305c-0.002,0.014-0.011,0.025-0.018,0.035
		c0.043,0.295,0.088,0.588,0.14,0.871c0.09,0.492,0.196,0.98,0.311,1.466c0.356-0.041,0.725-0.068,1.098-0.093
		c-0.504-0.783-0.965-1.64-1.52-2.367C31.954,15.247,31.951,15.277,31.947,15.305z"/>
	<path style="opacity:0.5;fill:#8FCFFF;" d="M31.478,15.424c-0.042-0.008-0.084-0.016-0.125-0.023
		c-1.441,0.639-2.955,1.111-4.482,1.542c0.805,0.265,1.477,0.844,2.137,1.409c0.847-0.245,1.753-0.44,2.716-0.581
		c-0.032-0.217-0.082-0.43-0.107-0.647C31.551,16.577,31.513,16.003,31.478,15.424z"/>
	<path style="opacity:0.5;fill:#8FCFFF;" d="M26.884,19.105c0.524-0.223,1.072-0.428,1.649-0.61c-0.573-0.531-1.15-1.056-1.786-1.47
		C26.855,17.71,26.88,18.407,26.884,19.105z"/>
	<path style="opacity:0.5;fill:#8FCFFF;" d="M22.376,21.851c0.255-0.213,0.519-0.424,0.798-0.631
		c-0.373-0.706-0.738-1.416-1.115-2.12C22.139,20.011,22.301,20.946,22.376,21.851z"/>
	<path style="opacity:0.5;fill:#8FCFFF;" d="M26.646,17.006c-1.452,0.405-2.911,0.777-4.329,1.22
		c-0.027,0.038-0.049,0.081-0.077,0.118c-0.007,0.009-0.015,0.009-0.022,0.016c0.528,0.807,1.042,1.622,1.542,2.448
		c0.857-0.584,1.812-1.133,2.886-1.607C26.655,18.47,26.662,17.739,26.646,17.006z"/>
	<path style="opacity:0.5;fill:#8FCFFF;" d="M21.815,18.643c-0.043-0.081-0.087-0.162-0.13-0.243
		c-1.749,0.373-3.765,0.426-5.543,0.565c-0.693,0.055-1.385,0.098-2.077,0.127c0.003,0.003,0.006,0.006,0.009,0.008
		c2.681,0.947,5.317,1.934,7.872,3.122c0.028-0.025,0.059-0.051,0.088-0.076C21.968,21.01,21.732,19.782,21.815,18.643z"/>
	<path style="opacity:0.5;fill:#8FCFFF;" d="M14.636,19.55c1.394,1.158,2.883,2.669,4.318,3.533
		c0.174,0.105,0.621,0.525,1.158,1.017c0.423-0.501,0.912-1.021,1.466-1.541c-0.925-0.461-1.853-0.913-2.804-1.331
		C17.418,20.629,15.981,20.179,14.636,19.55z"/>
</g>
</svg>
